# xmcd CD database file
#
# Track frame offsets:
#	150
#	15045
#	29695
#	44637
#	64787
#	81658
#	94310
#	108007
#	124095
#	138000
#	153891
#	167940
#	182503
#
# Disc length: 2707 seconds
#
# Revision: 0
# Processed by: cddbd v1.5.2PL0 Copyright (c) Steve Scherf et al.
# Submitted via: CDex 1.79
#
DISCID=a30a910d
DTITLE=Billy Yates - That's Why I Run
DYEAR=2008
DGENRE=Country
TTITLE0=Like A Radio
TTITLE1=One House Over, Two Streets Down
TTITLE2=I Don't Know How To Live
TTITLE3=That's Why I Run
TTITLE4=Standin' In My Way
TTITLE5=Take Me Back And Keep Me There
TTITLE6=There When He Falls
TTITLE7=That Makes One Of Us
TTITLE8=Life
TTITLE9=She Didn't Say A Word
TTITLE10=Happy
TTITLE11=Under Your Bed
TTITLE12=A Man Who Knows
EXTD=YEAR: 2008
EXTT0=
EXTT1=
EXTT2=
EXTT3=
EXTT4=
EXTT5=
EXTT6=
EXTT7=
EXTT8=
EXTT9=
EXTT10=
EXTT11=
EXTT12=
PLAYORDER=
